# xmcd CD database file
#
# Track frame offsets:
#	150
#	16352
#	38257
#	59595
#	75865
#	92585
#	118754
#	140794
#	157182
#	174133
#	189856
#	203438
#
# Disc length: 2969 seconds
#
# Revision: 1
# Processed by: cddbd v1.5.2PL0 Copyright (c) Steve Scherf et al.
# Submitted via: CDex 1.70beta2
#
DISCID=8b0b970c
DTITLE=Jeff and Vida - One Horse Town
DYEAR=2000
DGENRE=Country
TTITLE0=Take These Memories
TTITLE1=The Land That You Love
TTITLE2=In My Mind's Eye
TTITLE3=I'll Give You My Heart
TTITLE4=The Road To Abilene
TTITLE5=You Said We'd Grow Old Together
TTITLE6=Seven Years
TTITLE7=Jack and Lily
TTITLE8=News For The Heart
TTITLE9=Love Is An Empty Word
TTITLE10=Elizabeth
TTITLE11=One Horse Town
EXTD=YEAR: 2000
EXTT0=
EXTT1=
EXTT2=
EXTT3=
EXTT4=
EXTT5=
EXTT6=
EXTT7=
EXTT8=
EXTT9=
EXTT10=
EXTT11=
PLAYORDER=
